<?xml version="1.0" encoding="utf-8"?>
<!-- Generator: Adobe Illustrator 19.0.0, SVG Export Plug-In . SVG Version: 6.00 Build 0)  -->
<svg version="1.1" id="Layer_1" xmlns="http://www.w3.org/2000/svg" xmlns:xlink="http://www.w3.org/1999/xlink" x="0px" y="0px"
	 viewBox="0 0 160 40" style="enable-background:new 0 0 160 40;" xml:space="preserve">
<style type="text/css">
	.st0{fill:#55B260;}
</style>
<g id="XMLID_45_">
	<path id="XMLID_63_" class="st0" d="M56.7,6.3h5.8l-3.7,17.6h9.4L67.1,29H51.9L56.7,6.3z"/>
	<path id="XMLID_60_" class="st0" d="M69.6,29c0-0.7,0.1-3.2,0.7-5.9l2.1-9.9h5.9l-2.5,11.3c-0.3,1.6-0.5,4-0.5,4.5H69.6z
		 M75.6,10.9c-0.9,0-2.1-0.1-2.5-0.4C72.8,10,72.9,9,73.1,8c0.2-1.1,0.6-2.1,1-2.7c0.6-0.3,2-0.4,2.9-0.4c1,0,2.2,0.2,2.7,0.4
		c0.2,0.4,0.1,1.4-0.1,2.5c-0.3,1.1-0.6,2.2-1,2.7C78,10.8,76.6,10.9,75.6,10.9z"/>
	<path id="XMLID_58_" class="st0" d="M95.1,23.1c-0.4,1.6-0.8,5-0.7,5.8h-5.7c0-0.5,0-2,0.3-3.9c0.2-1.2,0.4-2,1-5
		c0.3-1.4,0-1.9,0-1.9c-1.7,0.6-3.4,1.9-4.4,2.9C85,23.7,83.9,29,83.9,29h-5.7l2-9.8c0.3-2,0.5-4,0.8-6h4.9l0.1,3.3
		c1.5-1.6,4.2-3.7,7.2-3.7c2.2,0,3.3,1.5,3.3,3.4C96.5,17.5,95.6,21,95.1,23.1z"/>
	<path id="XMLID_55_" class="st0" d="M97.8,29c0-0.7,0.1-3.2,0.7-5.9l3.8-17.9h5.9L104,24.4c-0.3,1.6-0.5,4-0.5,4.5H97.8z M107.5,29
		c0,0-1.8-4-2.1-8.4v-0.1c2-3.7,5.5-7.4,5.5-7.4h5.9c0,0-3.6,4.1-5.5,7.1c0.7,4.1,2.8,8.7,2.8,8.7H107.5z"/>
	<path id="XMLID_52_" class="st0" d="M129.8,6.2l2.4,22.7h-2.5l-0.8-7.5h-8.2l-4,7.5h-2.5l12.1-22.7H129.8z M121.8,19.2h6.9
		l-1.1-10.9L121.8,19.2z"/>
	<path id="XMLID_49_" class="st0" d="M136.8,18.9c0.6-2.6,0.6-5.3,0.6-5.4h2.4c0,0.1,0.1,1.9-0.3,4.1c1.5-1.8,4.3-4.6,6.7-4.6
		c1.4,0,2.9,2.1,2.9,5.4c0,4.9-2.7,9.5-6.6,11c-2.2,0-4-0.6-5.2-1.1l-1.8,8H133L136.8,18.9z M138.8,20.8L138.8,20.8l-1.2,5.7
		c0.8,0.4,2.4,0.9,4.2,1c1.9-0.9,4.6-4,4.7-8.1c0.1-2.4-0.5-3.8-1.1-4.3C142.9,15.8,139.9,19.3,138.8,20.8z"/>
	<path id="XMLID_46_" class="st0" d="M150.9,29c0-0.1-0.1-2.4,0.5-5.1l2.3-10.4h2.4l-2.2,10c-0.6,2.6-0.6,5.3-0.6,5.4H150.9z
		 M155.5,10c-0.4,0-0.9-0.1-1.1-0.2c-0.1-0.2-0.1-0.6,0-1.1c0.1-0.5,0.3-1,0.4-1.2c0.3-0.1,0.9-0.2,1.3-0.2c0.4,0,1,0,1.2,0.2
		c0.1,0.2,0.1,0.6,0,1.1c-0.1,0.4-0.3,1-0.4,1.2C156.5,10,155.9,10,155.5,10z"/>
</g>
<g id="XMLID_38_">
	<path id="XMLID_44_" class="st0" d="M13.6,13.7c0.1,0,0.3,0,0.4,0c-0.1,0.5-0.1,1.1-0.1,1.7h2.3c0-4.4,3.6-7.9,7.9-7.9
		c3.9,0,7.3,2.9,7.9,6.8l0.1,0l0.1,0.2c0.4-0.1,0.8-0.2,1.2-0.2c1.5,0,3,0.7,3.9,2l1.8-1.3c-1.3-1.7-3.2-2.7-5.3-2.9
		c-1.4-4-5.3-6.8-9.6-6.8c-4.3,0-7.9,2.6-9.4,6.3c-0.3-0.1-0.7-0.1-1-0.1c-3.9,0-7.1,3.2-7.1,7.1h2.3C8.7,15.8,10.9,13.7,13.6,13.7z
		"/>
	<path id="XMLID_40_" class="st0" d="M41.6,16.4c-1,0-1.8,0.5-2.3,1.3c0,0-0.1,0-0.1,0c-0.3,0-6.2-1.1-11.3,2.9
		c-0.5,0.4-0.8,0.6-1,0.7c0-0.4,0-1,0-1.5c0-1.9,0.1-4-1.5-4.9c-1.6-0.9-3.6,0.2-5.2,1.2C14,20.2,7.3,21,7.3,21c-0.1,0-0.1,0-0.2,0
		c-0.4-0.8-1.3-1.3-2.3-1.3c-0.7,0-1.3,0.3-1.8,0.8c-0.5,0.5-0.8,1.1-0.8,1.8v0c0,1.4,1.2,2.6,2.6,2.6c1,0,1.8-0.5,2.3-1.3
		c0.1,0,0.3,0.1,0.5,0c0.3,0,7.3-0.8,14.1-5.2c1.6-1.1,2.3-1.1,2.5-1.1c0.2,0.4,0.2,1.7,0.2,2.5c0,1.7-0.1,3.5,1.3,4.1
		c0.3,0.2,0.6,0.2,0.9,0.2c1,0,2.1-0.7,3.1-1.5c4.1-3.2,9.1-2.4,9.2-2.3c0.2,0,0.4,0,0.6,0c0.4,0.8,1.3,1.3,2.3,1.3
		c1.4,0,2.6-1.2,2.6-2.6C44.2,17.6,43.1,16.4,41.6,16.4z M4.8,23.4c-0.6,0-1.1-0.5-1.1-1.1v0c0-0.3,0.1-0.6,0.3-0.8
		c0.2-0.2,0.5-0.3,0.8-0.3c0.6,0,1.1,0.5,1.1,1.1C5.9,22.9,5.4,23.4,4.8,23.4z M41.6,20.1c-0.6,0-1.1-0.5-1.1-1.1
		c0-0.6,0.5-1.1,1.1-1.1c0.6,0,1.1,0.5,1.1,1.1C42.7,19.7,42.2,20.1,41.6,20.1z"/>
	<path id="XMLID_39_" class="st0" d="M33.8,26.7H12.5c-1.3,0-2.5-0.6-3.3-1.7l-1.8,1.4C8.6,28,10.5,29,12.5,29h21.3
		c3.5,0,6.4-2.9,6.4-6.4H38C38,24.8,36.1,26.7,33.8,26.7z"/>
</g>
</svg>
