<svg id="Layer_1" data-name="Layer 1" xmlns="http://www.w3.org/2000/svg" viewBox="0 0 324 201"><defs><style>.cls-1{fill:#f4f4f4;}.cls-2,.cls-3,.cls-5{fill:none;stroke:#d7e6d7;stroke-miterlimit:10;}.cls-2{stroke-width:3px;}.cls-3{stroke-width:2px;}.cls-4{fill:#d7e6d7;}</style></defs><title>Artboard 1 copy 3</title><path class="cls-1" d="M31,184H292.26c5.36,0,9.74-3.42,9.74-7.61V148Z"/><path class="cls-1" d="M130,139h49.17c1,0,2.83-1.81,2.83-3v-8Z"/><rect class="cls-2" x="11.63" y="19.5" width="291" height="164" rx="5.56"/><rect class="cls-3" x="125.08" y="83.66" width="57.42" height="55.84" rx="5.56"/><line class="cls-2" x1="10.5" y1="43.5" x2="301.5" y2="43.5"/><circle class="cls-4" cx="25" cy="32" r="5"/><circle class="cls-4" cx="39" cy="32" r="5"/><circle class="cls-4" cx="53" cy="32" r="5"/><line class="cls-5" x1="153.33" y1="56.57" x2="153.33" y2="65.38"/><line class="cls-5" x1="198.69" y1="70.86" x2="192.46" y2="77.09"/><line class="cls-5" x1="105" y1="70.86" x2="111.23" y2="77.09"/><path class="cls-4" d="M149.71,109.87c4.58-.2,7.81-2,7.81-4.43,0-2.09-1.94-3.88-5-3.88a8.59,8.59,0,0,0-6.27,3.09l-4.18-4.28A15.35,15.35,0,0,1,153.79,95c6.61,0,11.19,4.13,11.19,9.75,0,4.47-3.68,8.5-8.8,9.69V118h-6.47Zm-1.39,15.86a4.57,4.57,0,0,1,4.62-4.42,4.5,4.5,0,0,1,4.43,4.42,4.55,4.55,0,0,1-4.43,4.63A4.62,4.62,0,0,1,148.32,125.73Z"/></svg>